<svg width="506" height="182" viewBox="0 0 506 182" fill="none" xmlns="http://www.w3.org/2000/svg">
<path d="M69.3338 36.1742C69.3338 15.0119 59.8226 1.22068 37.2336 1.22068H32.478C9.88897 1.22068 0.377793 14.2985 0.377793 36.1742V147.217C0.377793 169.093 11.5534 181.457 32.478 181.457H37.4714C57.2071 181.457 69.3338 169.331 69.3338 147.217V36.1742ZM38.4225 149.833C38.4225 152.924 37.2336 154.588 34.8558 154.588C32.7158 154.588 31.5269 152.924 31.5269 149.833V32.8453C31.5269 29.2787 32.7158 27.6142 34.8558 27.6142C37.2336 27.6142 38.4225 29.2787 38.4225 32.8453V149.833ZM135.386 179.793H165.346V2.88514H135.386V78.499C134.673 78.499 133.96 78.7368 132.771 78.7368H132.533C130.393 78.7368 128.966 78.0234 128.966 74.4567V2.88514H99.0061V81.1145C99.0061 99.4235 110.182 106.081 123.735 106.081H124.211C130.155 106.081 134.435 105.368 135.386 104.655V179.793ZM177.941 2.88514V179.793H229.539V152.211H207.426V101.088H225.497V73.03H207.426V29.992H228.826V2.88514H177.941ZM261.323 179.793H309.041V62.426L363.507 179.793H402.308L456.774 62.426V179.793H505.215V0.488964H443.278L384.474 121.953L327.357 0.488964H261.323V179.793Z" fill="black"/>
</svg>
