<svg width="31" height="30" viewBox="0 0 31 30" fill="none" xmlns="http://www.w3.org/2000/svg">
<path d="M30.1864 13.9302L30.1863 13.9303C30.1167 14.0059 30.0188 14.0488 29.9166 14.0488H29.9165H29.9165H29.9165H29.9165H29.9165H29.9165H29.9164H29.9164H29.9164H29.9164H29.9164H29.9164H29.9164H29.9163H29.9163H29.9163H29.9163H29.9163H29.9163H29.9162H29.9162H29.9162H29.9162H29.9162H29.9162H29.9161H29.9161H29.9161H29.9161H29.9161H29.916H29.916H29.916H29.916H29.916H29.916H29.9159H29.9159H29.9159H29.9159H29.9158H29.9158H29.9158H29.9158H29.9158H29.9157H29.9157H29.9157H29.9157H29.9157H29.9156H29.9156H29.9156H29.9156H29.9155H29.9155H29.9155H29.9155H29.9154H29.9154H29.9154H29.9154H29.9153H29.9153H29.9153H29.9152H29.9152H29.9152H29.9152H29.9151H29.9151H29.9151H29.9151H29.915H29.915H29.915H29.915H29.9149H29.9149H29.9149H29.9149H29.9149H29.9148H29.9148H29.9148H29.9148H29.9148H29.9147H29.9147H29.9147H29.9147H29.9147H29.9146H29.9146H29.9146H29.9145H29.9145H29.9145H29.9145H29.9144H29.9144H29.9144H29.9143H29.9143H29.9143H29.9143H29.9143H29.9142H29.9142H29.9142H29.9142H29.9141H29.9141H29.9141H29.914H29.914H29.914H29.914H29.914H29.9139H29.9139H29.9139H29.9138H29.9138H29.9138H29.9138H29.9137H29.9137H29.9137H29.9137H29.9136H29.9136H29.9136H29.9135H29.9135H29.9135H29.9135H29.9134H29.9134H29.9134H29.9134H29.9133H29.9133H29.9133H29.9133H29.9132H29.9132H29.9132H29.9132H29.9131H29.9131H29.9131H29.9131H29.913H29.913H29.913H29.913H29.9129H29.9129H29.9129H29.9128H29.9128H29.9128H29.9128H29.9128H29.9127H29.9127H29.9127H29.9126H29.9126H29.9126H29.9126H29.9125H29.9125H29.9125H29.9125H29.9124H29.9124H29.9124H29.9124H29.9123H29.9123H29.9123H29.9123H29.9122H29.9122H29.9122H29.9122H29.9121H29.9121H29.9121H29.9121H29.912H29.912H29.912H29.9119H29.9119H29.9119H29.9119H29.9118H29.9118H29.9118H29.9118H29.9117H29.9117H29.9117H29.9117H29.9116H29.9116H29.9116H29.9116H29.9115H29.9115H29.9115H29.9115H29.9114H29.9114H29.9114H29.9114H29.9113H29.9113H29.9113H29.9112H29.9112H29.9112H29.9112H29.9111H29.9111H29.9111H29.9111H29.9111H29.911H29.911H29.911H29.911H29.911H29.9109H29.9109C23.7741 13.9816 20.5055 12.9626 18.7272 10.8673C17.8365 9.81794 17.298 8.47416 16.9766 6.78124C16.6547 5.08582 16.5541 3.05973 16.5256 0.659228C16.5245 0.554355 16.5674 0.454775 16.6435 0.3845L16.6441 0.383994C16.7178 0.31556 16.8216 0.279963 16.9292 0.287997C24.0227 0.935148 29.6381 6.55327 30.2831 13.6469C30.2922 13.7509 30.2571 13.8536 30.1864 13.9302ZM16.9278 29.7117L16.9253 29.7119C16.9182 29.7126 16.9081 29.7131 16.8943 29.7131C16.8033 29.7131 16.7134 29.6785 16.6442 29.615C16.5681 29.5447 16.5251 29.4451 16.5262 29.3403C16.5547 26.9398 16.6553 24.9137 16.9771 23.2182C17.2985 21.5253 17.837 20.1815 18.7275 19.1322C20.505 17.0376 23.7718 16.0186 29.9046 15.9508C30.0257 15.9569 30.1225 16.0004 30.1869 16.0698C30.2574 16.1458 30.2923 16.2481 30.2831 16.3528C29.6386 23.4476 24.0223 29.0654 16.9278 29.7117ZM0.957151 13.9316L0.956527 13.931C0.886064 13.855 0.851173 13.7528 0.860385 13.648C1.50227 6.57326 7.10055 0.956061 14.1723 0.29104C14.2764 0.281508 14.3802 0.316157 14.4579 0.386933C14.534 0.457452 14.5771 0.557601 14.5759 0.661847C14.5472 3.0607 14.4465 5.08548 14.1253 6.77995C13.8047 8.47198 13.2676 9.8152 12.3797 10.8644C10.607 12.9589 7.34943 13.9789 1.23312 14.0494H1.2331H1.23309H1.23307H1.23306H1.23304H1.23303H1.23301H1.233H1.23298H1.23296H1.23295H1.23293H1.23292H1.2329H1.23289H1.23287H1.23286H1.23284H1.23283H1.23281H1.2328H1.23278H1.23277H1.23275H1.23273H1.23272H1.2327H1.23269H1.23267H1.23266H1.23264H1.23263H1.23261H1.2326H1.23258H1.23257H1.23255H1.23254H1.23252H1.2325H1.23249H1.23247H1.23246H1.23244H1.23243H1.23241H1.2324H1.23238H1.23237H1.23235H1.23234H1.23232H1.2323H1.23229H1.23227H1.23226H1.23224H1.23223H1.23221H1.2322H1.23218H1.23217H1.23215H1.23214H1.23212H1.23211H1.23209H1.23207H1.23206H1.23204H1.23203H1.23201H1.232H1.23198H1.23197H1.23195H1.23194H1.23192H1.23191H1.23189H1.23188H1.23186H1.23184H1.23183H1.23181H1.2318H1.23178H1.23177H1.23175H1.23174H1.23172H1.23171H1.23169H1.23168H1.23166H1.23164H1.23163H1.23161H1.2316H1.23158H1.23157H1.23155H1.23154H1.23152H1.23151H1.23149H1.23148H1.23146H1.23145H1.23143H1.23141H1.2314H1.23138H1.23137H1.23135H1.23134H1.23132H1.23131H1.23129H1.23128H1.23126H1.23125H1.23123H1.23122H1.2312H1.23118H1.23117H1.23115H1.23114H1.23112H1.23111H1.23109H1.23108H1.23106H1.23105H1.23103H1.23102H1.231H1.23098H1.23097H1.23095H1.23094H1.23092H1.23091H1.23089H1.23088H1.23086H1.23085H1.23083H1.23082H1.2308H1.23079H1.23077H1.23075H1.23074H1.23072H1.23071H1.23069H1.23068H1.23066H1.23065H1.23063H1.23062H1.2306H1.23059H1.23057H1.23056H1.23054H1.23052H1.23051H1.23049H1.23048H1.23046H1.23045H1.23043H1.23042H1.2304H1.23039H1.23037H1.23036H1.23034H1.23032H1.23031H1.23029H1.23028H1.23026H1.23025H1.23023H1.23022H1.2302H1.23019H1.23017H1.23016H1.23014H1.23013H1.23011H1.23009H1.23008H1.23006H1.23005H1.23003H1.23002H1.23H1.22999H1.22997H1.22996H1.22994H1.22993H1.22991H1.2299H1.22988H1.22986H1.22985H1.22983H1.22982H1.2298H1.22979H1.22977H1.22976H1.22974H1.22973H1.22971H1.2297H1.22968H1.22966H1.22965H1.22963H1.22962H1.2296H1.22959H1.22957H1.22956H1.22954H1.22953H1.22951H1.2295H1.22948H1.22947H1.22945H1.22943H1.22942H1.2294H1.22939H1.22937H1.22936H1.22934H1.22933H1.22931H1.2293H1.22928H1.22927H1.22925H1.22924H1.22922H1.2292H1.22919H1.22917H1.22916H1.22914H1.22913H1.22911H1.2291H1.22908H1.22907H1.22905H1.22904H1.22902H1.229H1.22899H1.22897H1.22896H1.22894H1.22893H1.22891H1.2289H1.22888H1.22887H1.22885H1.22884H1.22882H1.22881H1.22879H1.22877H1.22876H1.22874H1.22873H1.22871H1.2287H1.22868H1.22867H1.22865H1.22864H1.22862H1.22861H1.22859H1.22858H1.22856H1.22854H1.22853H1.22851H1.2285H1.22848H1.22847H1.22845H1.22844H1.22842H1.22841H1.22839H1.22838H1.22836H1.22834H1.22833H1.22831H1.2283H1.22828H1.22827H1.22825H1.22824H1.22822H1.22821H1.22819H1.22818H1.22816H1.22815H1.22813H1.22811H1.2281H1.22808H1.22807H1.22805H1.22804H1.22802H1.22801H1.22799H1.22798H1.22796H1.22795H1.22793H1.22792H1.2279H1.22788H1.22787H1.22785H1.22784H1.22782H1.22781H1.22779H1.22778H1.22776H1.22775H1.22773H1.22772H1.2277H1.22768H1.22767H1.22765H1.22764H1.22762H1.22761H1.22759H1.22758H1.22756H1.22755H1.22753H1.22752H1.2275H1.22749H1.22747H1.22745H1.22744H1.22742H1.22741H1.22739H1.22738H1.22736H1.22735H1.22733H1.22732H1.2273H1.22729H1.22727H1.22726H1.22724H1.22722H1.22721H1.22719H1.22718H1.22716H1.22715H1.22713H1.22712H1.2271H1.22709H1.22707H1.22706H1.22704H1.22702H1.22701H1.22699H1.22698H1.22696H1.22695H1.22693H1.22692H1.2269C1.12441 14.0494 1.02622 14.0066 0.957151 13.9316ZM1.20202 15.9483L1.21637 15.9499L1.23081 15.95C7.34852 16.0204 10.6065 17.0404 12.3793 19.1351C13.2671 20.1842 13.8042 21.5273 14.1248 23.2193C14.4459 24.9136 14.5465 26.9383 14.5753 29.337C14.5764 29.4414 14.5332 29.5416 14.4569 29.6122C14.388 29.6755 14.2988 29.7098 14.2073 29.7098C14.1926 29.7098 14.1815 29.7093 14.1734 29.7086L14.1726 29.7085C7.10069 29.0436 1.50161 23.4263 0.859729 16.3514C0.850578 16.2474 0.885631 16.1446 0.956377 16.068L0.956882 16.0674C1.04654 15.9698 1.12235 15.9393 1.20202 15.9483Z" fill="white" stroke="white" stroke-width="0.573774"/>
</svg>
