<svg width="30" height="30" viewBox="0 0 30 30" fill="none" xmlns="http://www.w3.org/2000/svg">
<path d="M29.615 13.9302L29.6149 13.9303C29.5452 14.0059 29.4474 14.0488 29.3451 14.0488H29.3451H29.3451H29.3451H29.3451H29.3451H29.3451H29.345H29.345H29.345H29.345H29.345H29.345H29.3449H29.3449H29.3449H29.3449H29.3449H29.3449H29.3449H29.3448H29.3448H29.3448H29.3448H29.3448H29.3447H29.3447H29.3447H29.3447H29.3447H29.3447H29.3446H29.3446H29.3446H29.3446H29.3446H29.3445H29.3445H29.3445H29.3445H29.3445H29.3444H29.3444H29.3444H29.3444H29.3444H29.3443H29.3443H29.3443H29.3443H29.3442H29.3442H29.3442H29.3442H29.3441H29.3441H29.3441H29.3441H29.344H29.344H29.344H29.344H29.3439H29.3439H29.3439H29.3439H29.3438H29.3438H29.3438H29.3438H29.3437H29.3437H29.3437H29.3437H29.3436H29.3436H29.3436H29.3436H29.3435H29.3435H29.3435H29.3435H29.3435H29.3434H29.3434H29.3434H29.3434H29.3434H29.3433H29.3433H29.3433H29.3433H29.3432H29.3432H29.3432H29.3432H29.3431H29.3431H29.3431H29.343H29.343H29.343H29.343H29.3429H29.3429H29.3429H29.3429H29.3429H29.3428H29.3428H29.3428H29.3427H29.3427H29.3427H29.3427H29.3426H29.3426H29.3426H29.3426H29.3425H29.3425H29.3425H29.3425H29.3424H29.3424H29.3424H29.3424H29.3423H29.3423H29.3423H29.3422H29.3422H29.3422H29.3422H29.3421H29.3421H29.3421H29.3421H29.342H29.342H29.342H29.342H29.3419H29.3419H29.3419H29.3419H29.3418H29.3418H29.3418H29.3417H29.3417H29.3417H29.3417H29.3417H29.3416H29.3416H29.3416H29.3415H29.3415H29.3415H29.3415H29.3414H29.3414H29.3414H29.3414H29.3413H29.3413H29.3413H29.3413H29.3412H29.3412H29.3412H29.3412H29.3411H29.3411H29.3411H29.3411H29.341H29.341H29.341H29.341H29.3409H29.3409H29.3409H29.3409H29.3408H29.3408H29.3408H29.3407H29.3407H29.3407H29.3407H29.3406H29.3406H29.3406H29.3406H29.3405H29.3405H29.3405H29.3405H29.3404H29.3404H29.3404H29.3404H29.3403H29.3403H29.3403H29.3402H29.3402H29.3402H29.3402H29.3401H29.3401H29.3401H29.3401H29.3401H29.34H29.34H29.34H29.3399H29.3399H29.3399H29.3399H29.3398H29.3398H29.3398H29.3398H29.3397H29.3397H29.3397H29.3397H29.3397H29.3396H29.3396H29.3396H29.3396H29.3396H29.3395H29.3395C23.2026 13.9816 19.9341 12.9626 18.1558 10.8673C17.2651 9.81794 16.7265 8.47416 16.4052 6.78124C16.0833 5.08582 15.9827 3.05973 15.9542 0.659228C15.9531 0.554355 15.996 0.454775 16.0721 0.3845L16.0727 0.383994C16.1464 0.31556 16.2502 0.279963 16.3578 0.287997C23.4513 0.935148 29.0667 6.55327 29.7117 13.6469C29.7208 13.7509 29.6857 13.8536 29.615 13.9302ZM16.3564 29.7117L16.3539 29.7119C16.3468 29.7126 16.3367 29.7131 16.3228 29.7131C16.2319 29.7131 16.142 29.6785 16.0728 29.615C15.9967 29.5447 15.9537 29.4451 15.9548 29.3403C15.9833 26.9398 16.0839 24.9137 16.4057 23.2182C16.727 21.5253 17.2656 20.1815 18.1561 19.1322C19.9336 17.0376 23.2004 16.0186 29.3332 15.9508C29.4543 15.9569 29.5511 16.0004 29.6155 16.0698C29.686 16.1458 29.7209 16.2481 29.7117 16.3528C29.0672 23.4476 23.4509 29.0654 16.3564 29.7117ZM0.385739 13.9316L0.385115 13.931C0.314653 13.855 0.279762 13.7528 0.288974 13.648C0.930854 6.57326 6.52914 0.956061 13.6009 0.29104C13.7049 0.281508 13.8088 0.316157 13.8864 0.386933C13.9626 0.457452 14.0056 0.557601 14.0045 0.661847C13.9757 3.0607 13.8751 5.08548 13.5539 6.77995C13.2333 8.47198 12.6962 9.8152 11.8083 10.8644C10.0356 12.9589 6.77802 13.9789 0.661707 14.0494H0.661692H0.661677H0.661661H0.661646H0.661631H0.661615H0.6616H0.661585H0.661569H0.661554H0.661539H0.661523H0.661508H0.661492H0.661477H0.661462H0.661446H0.661431H0.661416H0.6614H0.661385H0.66137H0.661354H0.661339H0.661324H0.661308H0.661293H0.661278H0.661262H0.661247H0.661232H0.661216H0.661201H0.661186H0.66117H0.661155H0.661139H0.661124H0.661109H0.661093H0.661078H0.661063H0.661047H0.661032H0.661017H0.661001H0.660986H0.660971H0.660955H0.66094H0.660925H0.660909H0.660894H0.660879H0.660863H0.660848H0.660832H0.660817H0.660802H0.660786H0.660771H0.660756H0.66074H0.660725H0.66071H0.660694H0.660679H0.660664H0.660648H0.660633H0.660618H0.660602H0.660587H0.660572H0.660556H0.660541H0.660526H0.66051H0.660495H0.660479H0.660464H0.660449H0.660433H0.660418H0.660403H0.660387H0.660372H0.660357H0.660341H0.660326H0.660311H0.660295H0.66028H0.660265H0.660249H0.660234H0.660219H0.660203H0.660188H0.660172H0.660157H0.660142H0.660126H0.660111H0.660096H0.66008H0.660065H0.66005H0.660034H0.660019H0.660004H0.659988H0.659973H0.659958H0.659942H0.659927H0.659912H0.659896H0.659881H0.659865H0.65985H0.659835H0.659819H0.659804H0.659789H0.659773H0.659758H0.659743H0.659727H0.659712H0.659697H0.659681H0.659666H0.659651H0.659635H0.65962H0.659605H0.659589H0.659574H0.659559H0.659543H0.659528H0.659512H0.659497H0.659482H0.659466H0.659451H0.659436H0.65942H0.659405H0.65939H0.659374H0.659359H0.659344H0.659328H0.659313H0.659298H0.659282H0.659267H0.659252H0.659236H0.659221H0.659205H0.65919H0.659175H0.659159H0.659144H0.659129H0.659113H0.659098H0.659083H0.659067H0.659052H0.659037H0.659021H0.659006H0.658991H0.658975H0.65896H0.658945H0.658929H0.658914H0.658899H0.658883H0.658868H0.658852H0.658837H0.658822H0.658806H0.658791H0.658776H0.65876H0.658745H0.65873H0.658714H0.658699H0.658684H0.658668H0.658653H0.658638H0.658622H0.658607H0.658592H0.658576H0.658561H0.658545H0.65853H0.658515H0.658499H0.658484H0.658469H0.658453H0.658438H0.658423H0.658407H0.658392H0.658377H0.658361H0.658346H0.658331H0.658315H0.6583H0.658285H0.658269H0.658254H0.658239H0.658223H0.658208H0.658192H0.658177H0.658162H0.658146H0.658131H0.658116H0.6581H0.658085H0.65807H0.658054H0.658039H0.658024H0.658008H0.657993H0.657978H0.657962H0.657947H0.657932H0.657916H0.657901H0.657885H0.65787H0.657855H0.657839H0.657824H0.657809H0.657793H0.657778H0.657763H0.657747H0.657732H0.657717H0.657701H0.657686H0.657671H0.657655H0.65764H0.657625H0.657609H0.657594H0.657578H0.657563H0.657548H0.657532H0.657517H0.657502H0.657486H0.657471H0.657456H0.65744H0.657425H0.65741H0.657394H0.657379H0.657364H0.657348H0.657333H0.657318H0.657302H0.657287H0.657272H0.657256H0.657241H0.657225H0.65721H0.657195H0.657179H0.657164H0.657149H0.657133H0.657118H0.657103H0.657087H0.657072H0.657057H0.657041H0.657026H0.657011H0.656995H0.65698H0.656965H0.656949H0.656934H0.656918H0.656903H0.656888H0.656872H0.656857H0.656842H0.656826H0.656811H0.656796H0.65678H0.656765H0.65675H0.656734H0.656719H0.656704H0.656688H0.656673H0.656658H0.656642H0.656627H0.656612H0.656596H0.656581H0.656565H0.65655H0.656535H0.656519H0.656504H0.656489H0.656473H0.656458H0.656443H0.656427H0.656412H0.656397H0.656381H0.656366H0.656351H0.656335H0.65632H0.656305H0.656289H0.656274H0.656259H0.656243H0.656228H0.656212H0.656197H0.656182H0.656166H0.656151H0.656136H0.65612H0.656105H0.65609H0.656074H0.656059H0.656044H0.656028H0.656013H0.655998H0.655982H0.655967H0.655951H0.655936H0.655921H0.655905H0.65589H0.655875H0.655859H0.655844H0.655829H0.655813H0.655798H0.655783H0.655767H0.655752H0.655737H0.655721H0.655706H0.655691H0.655675H0.65566H0.655645H0.655629H0.655614H0.655599H0.655583H0.655568H0.655552H0.655537H0.655522H0.655506H0.655491C0.552997 14.0494 0.45481 14.0066 0.385739 13.9316ZM0.630609 15.9483L0.644958 15.9499L0.659397 15.95C6.77711 16.0204 10.0351 17.0404 11.8078 19.1351C12.6957 20.1842 13.2328 21.5273 13.5534 23.2193C13.8744 24.9136 13.9751 26.9383 14.0039 29.337C14.005 29.4414 13.9618 29.5416 13.8855 29.6122C13.8166 29.6755 13.7274 29.7098 13.6359 29.7098C13.6212 29.7098 13.6101 29.7093 13.602 29.7086L13.6012 29.7085C6.52928 29.0436 0.930201 23.4263 0.288318 16.3514C0.279167 16.2474 0.314219 16.1446 0.384966 16.068L0.385471 16.0674C0.475125 15.9698 0.550938 15.9393 0.630609 15.9483Z" fill="black" stroke="black" stroke-width="0.573774"/>
</svg>
