<svg width="230" height="51" viewBox="0 0 230 51" fill="none" xmlns="http://www.w3.org/2000/svg">
<path d="M24.043 38.2656L31.1497 17.3242L38.6768 38.2656H48.5588L61.2162 6.97961H51.5865L43.6809 27.879L36.5322 6.97961H26.1035L19.123 28.5098L11.0492 6.97961H0.368257L13.2359 38.2656H24.043ZM82.1507 6.43295C62.3447 6.43295 60.116 16.315 60.116 21.9077V23.1693C60.116 28.678 62.3447 38.8123 82.1507 38.8123H83.9589C103.681 38.8123 105.952 28.678 105.952 23.1693V21.9077C105.952 16.315 103.639 6.43295 83.9589 6.43295H82.1507ZM95.6912 22.2021V22.7908C95.6912 26.4072 93.5466 31.201 83.0338 31.201C72.479 31.201 70.3764 26.2811 70.3764 22.7067V22.2021C70.3764 18.5857 72.3108 14.0021 83.0338 14.0021C93.5886 14.0021 95.6912 18.5857 95.6912 22.2021ZM128.308 38.2656L135.415 17.3242L142.942 38.2656H152.824L165.482 6.97961H155.852L147.946 27.879L140.798 6.97961H130.369L123.388 28.5098L115.315 6.97961H104.634L117.501 38.2656H128.308ZM166.144 6.97961L169.046 28.7621H174.681L177.582 6.97961H166.144ZM176.951 30.9067H166.775V38.2656H176.951V30.9067Z" fill="#2A2A30"/>
<path d="M184.162 39H188.418V18.7315L191.326 39H193.222L196.087 18.7315V39H200.554V7.64907H194.865L192.548 24.2094L190.272 7.64907H184.162V39ZM210.274 39H214.867L210.78 7.64907H205.133L201.298 39H205.554L206.144 33.1006H209.642L210.274 39ZM207.872 16.8352L209.136 28.4233H206.65L207.872 16.8352ZM220.239 39.4214C222.64 39.4214 224.242 36.9774 224.579 35.9239C224.958 37.2723 225.337 38.8314 225.379 39H228.076V19.9535H221.418V24.7572H223.568V32.595C223.568 33.7748 223.02 34.6176 221.798 34.6176C220.829 34.6176 220.239 33.8591 220.239 32.3843V14.0541C220.239 12.6635 220.702 11.905 221.713 11.905C222.893 11.905 223.23 12.6635 223.23 14.0541V17.5937H227.866V14.3912C227.866 10.683 227.276 7.3541 222.177 7.3541H221.25C216.741 7.3541 215.393 10.5988 215.393 14.0962V33.6906C215.393 36.9352 217.162 39.4214 219.944 39.4214H220.239Z" fill="#2A2A30"/>
</svg>
