<svg width="100" height="78" viewBox="0 0 100 78" fill="none" xmlns="http://www.w3.org/2000/svg">
<path d="M3.68518 70.8477H13.1571V53.9074L21.1355 70.8477H27.3287L35.3798 53.9074V70.8477H44.9975V43.7432H32.0282L24.5599 59.2263L17.2374 43.7432H3.68518V70.8477ZM53.5864 61.995H52.4934L53.0399 51.6851L53.5864 61.995ZM54.06 70.8477H58.5409L56.1001 43.7432H50.2712L48.0125 70.8477H51.9834L52.2384 65.9659H53.8049L54.06 70.8477ZM77.0881 71.2484C84.0099 71.2484 87.2887 68.3339 88.1266 67.3867C88.6366 68.2611 89.2195 69.9005 89.4381 70.8477H96.3964V55.6925H78.1082V60.7564H85.8679C85.6857 61.5943 84.3378 64.0351 78.436 64.0351C72.3157 64.0351 70.567 60.4285 70.567 57.3683V57.004C70.567 53.7981 72.17 50.5558 78.436 50.5558C84.52 50.5558 85.4672 52.7416 85.7586 53.4338H96.0685V53.2881C96.0685 49.3536 93.1905 43.3061 79.0554 43.3061H77.7803C63.8274 43.3061 60.3664 50.8472 60.3664 56.8219V57.5505C60.3664 63.7437 64.0095 71.2484 76.4688 71.2484H77.0881Z" fill="white"/>
<path d="M9.66122 44L10.3602 26.567L11.018 44H16.8976L19.4056 13.41H14.3895L13.7728 33.5155L12.8682 13.41H8.0166L7.15317 33.3922L6.53643 13.41H1.15029L3.65834 44H9.66122ZM41.1715 12.8755C24.9308 12.8755 21.4771 21.6331 21.4771 28.006V29.2395C21.4771 35.4891 24.8897 44.5345 41.1715 44.5345H43.0217C59.3857 44.5345 62.7161 35.4891 62.7161 29.2395V28.006C62.7161 21.6742 59.3446 12.8755 43.0217 12.8755H41.1715ZM51.1215 28.7872C51.1215 31.7476 49.8058 36.1058 42.1172 36.1058C34.4285 36.1058 33.0717 31.7476 33.0717 28.7872V28.335C33.0717 25.3746 34.3463 21.1808 42.076 21.1808C49.8058 21.1808 51.1215 25.3746 51.1215 28.335V28.7872ZM74.7822 13.41L73.1376 32.3643L71.7397 13.41H64.7911L68.656 44H76.5091L77.8248 27.8005L79.1405 44H86.8291L90.7351 13.41H84.2388L82.7998 32.1998L81.1551 13.41H74.7822ZM90.9368 13.41C90.9368 15.3424 92.2114 33.4744 92.2114 37.9971H95.0072C95.0072 33.5155 96.3229 15.3013 96.3229 13.41H90.9368ZM95.8295 38.6961H91.3891V44H95.8295V38.6961Z" fill="white"/>
</svg>
