<svg width="475" height="74" viewBox="0 0 475 74" fill="none" xmlns="http://www.w3.org/2000/svg">
<path d="M230.836 72.6177H255.777V28.0121L276.784 72.6177H293.092L314.292 28.0121V72.6177H339.616V1.24877H305.466L285.802 42.0173L266.52 1.24877H230.836V72.6177Z" fill="white"/>
<path d="M362.231 49.3077H359.354L360.792 22.1606L362.231 49.3077ZM363.478 72.6177H375.277L368.85 1.24877H353.502L347.555 72.6177H358.011L358.682 59.7636H362.807L363.478 72.6177Z" fill="white"/>
<path d="M424.114 73.6729C442.34 73.6729 450.973 65.9988 453.18 63.5047C454.523 65.807 456.057 70.1236 456.633 72.6177H474.955V32.7125H426.8V46.0462H447.232C446.753 48.2525 443.203 54.6796 427.663 54.6796C411.548 54.6796 406.943 45.1829 406.943 37.1251V36.1658C406.943 27.7243 411.164 19.1869 427.663 19.1869C443.683 19.1869 446.177 24.9425 446.944 26.7651H474.092V26.3814C474.092 16.0214 466.513 0.0976562 429.294 0.0976562H425.937C389.197 0.0976562 380.084 19.9543 380.084 35.6862V37.6047C380.084 53.9121 389.677 73.6729 422.483 73.6729H424.114Z" fill="white"/>
<path d="M19.8567 72.616L21.4874 31.9434L23.0222 72.616H36.7397L42.5911 1.24704H30.8882L29.4493 48.1549L27.3389 1.24704H16.0196L14.0052 47.8671L12.5663 1.24704H0L5.85149 72.616H19.8567Z" fill="white"/>
<path d="M93.3727 0C55.482 0 47.4242 20.4322 47.4242 35.3008V38.1785C47.4242 52.7593 55.386 73.863 93.3727 73.863H97.6894C135.868 73.863 143.638 52.7593 143.638 38.1785V35.3008C143.638 20.5282 135.772 0 97.6894 0H93.3727ZM116.587 37.1234C116.587 44.03 113.517 54.1982 95.579 54.1982C77.6409 54.1982 74.4753 44.03 74.4753 37.1234V36.0682C74.4753 29.1615 77.449 19.3771 95.4831 19.3771C113.517 19.3771 116.587 29.1615 116.587 36.0682V37.1234Z" fill="white"/>
<path d="M171.789 1.24704L167.952 45.4689L164.691 1.24704H148.479L157.496 72.616H175.818L178.888 34.8211L181.957 72.616H199.896L209.009 1.24704H193.852L190.495 45.0852L186.658 1.24704H171.789Z" fill="white"/>
<path d="M209.479 1.24704C209.479 5.75556 212.453 48.0589 212.453 58.6108H218.976C218.976 48.1549 222.045 5.65963 222.045 1.24704H209.479ZM220.894 60.2415H210.534V72.616H220.894V60.2415Z" fill="white"/>
</svg>
