<svg width="295" height="182" viewBox="0 0 295 182" fill="none" xmlns="http://www.w3.org/2000/svg">
<path d="M8.44922 180.338H37.696V128.031L62.3308 180.338H81.4537L106.313 128.031V180.338H136.01V96.6467H95.9646L72.9046 144.454L50.2946 96.6467H8.44922V180.338Z" fill="#161616"/>
<path d="M162.53 153.003H159.155L160.843 121.169L162.53 153.003ZM163.992 180.338H177.828L170.292 96.6467H152.294L145.319 180.338H157.581L158.368 165.264H163.205L163.992 180.338Z" fill="#161616"/>
<path d="M235.097 181.575C256.47 181.575 266.593 172.576 269.181 169.651C270.755 172.351 272.555 177.413 273.23 180.338H294.715V133.543H238.247V149.178H262.206C261.644 151.766 257.482 159.302 239.259 159.302C220.361 159.302 214.962 148.166 214.962 138.717V137.592C214.962 127.693 219.911 117.682 239.259 117.682C258.044 117.682 260.969 124.431 261.869 126.568H293.703V126.118C293.703 113.97 284.816 95.2969 241.171 95.2969H237.234C194.151 95.2969 183.465 118.582 183.465 137.03V139.28C183.465 158.402 194.714 181.575 233.185 181.575H235.097Z" fill="#161616"/>
<path d="M26.9024 96.9983L29.0606 43.17L31.0919 96.9983H49.2462L56.9904 2.54493H41.5021L39.5978 64.6252L36.8048 2.54493H21.8243L19.1582 64.2443L17.2539 2.54493H0.623047L8.36721 96.9983H26.9024Z" fill="#161616"/>
<path d="M124.197 0.894531C74.0507 0.894531 63.3866 27.9356 63.3866 47.6134V51.422C63.3866 70.7189 73.9238 98.6487 124.197 98.6487H129.91C180.438 98.6487 190.721 70.7189 190.721 51.422V47.6134C190.721 28.0626 180.311 0.894531 129.91 0.894531H124.197ZM154.92 50.0255C154.92 59.1662 150.858 72.6232 127.117 72.6232C103.377 72.6232 99.1875 59.1662 99.1875 50.0255V48.629C99.1875 39.4884 103.123 26.5391 126.99 26.5391C150.858 26.5391 154.92 39.4884 154.92 48.629V50.0255Z" fill="#161616"/>
<path d="M227.978 2.54493L222.9 61.0705L218.583 2.54493H197.128L209.062 96.9983H233.31L237.372 46.9786L241.435 96.9983H265.175L277.236 2.54493H257.177L252.734 60.5627L247.656 2.54493H227.978Z" fill="#161616"/>
<path d="M277.859 2.54493C277.859 8.51174 281.794 64.4982 281.794 78.4631H290.427C290.427 64.6252 294.489 8.38479 294.489 2.54493H277.859ZM292.966 80.6213H279.255V96.9983H292.966V80.6213Z" fill="#161616"/>
</svg>
