<svg width="1774" height="387" viewBox="0 0 1774 387" fill="none" xmlns="http://www.w3.org/2000/svg">
<path d="M214.585 0.128002C38.2622 0.128002 0.765738 95.2084 0.765738 164.398V177.79C0.765738 245.641 37.8159 343.846 214.585 343.846H234.673C412.335 343.846 448.492 245.641 448.492 177.79V164.398C448.492 95.6548 411.888 0.128002 234.673 0.128002H214.585ZM322.611 172.88C322.611 205.02 308.326 252.337 224.852 252.337C141.378 252.337 126.647 205.02 126.647 172.88V167.97C126.647 135.83 140.485 90.2982 224.406 90.2982C308.326 90.2982 322.611 135.83 322.611 167.97V172.88ZM517.054 338.043H633.115V130.473L730.874 338.043H806.759L905.411 130.473V338.043H1023.26V5.93104H864.343L772.834 195.646L683.11 5.93104H517.054V338.043ZM1165.55 68.4252C1165.55 28.6968 1147.69 2.80632 1105.28 2.80632H1096.36C1053.95 2.80632 1036.09 27.3576 1036.09 68.4252V276.888C1036.09 317.956 1057.07 341.168 1096.36 341.168H1105.73C1142.78 341.168 1165.55 318.402 1165.55 276.888V68.4252ZM1107.52 281.798C1107.52 287.601 1105.28 290.726 1100.82 290.726C1096.8 290.726 1094.57 287.601 1094.57 281.798V62.1758C1094.57 55.48 1096.8 52.3553 1100.82 52.3553C1105.28 52.3553 1107.52 55.48 1107.52 62.1758V281.798ZM1176.56 268.853V386.253H1251.1V338.043H1352.43V386.253H1426.98V268.853H1400.2V5.93104H1212.27C1212.27 198.77 1208.7 229.125 1196.2 268.853H1176.56ZM1270.3 268.853C1280.12 231.803 1283.69 180.915 1283.69 72.8891H1318.06V268.853H1270.3ZM1438.55 5.93104V338.043H1773.34V256.801H1558.63V211.269H1763.52V128.687H1558.63V86.2807H1770.21V5.93104H1438.55Z" fill="#2A2A30"/>
</svg>
