<svg width="1775" height="393" viewBox="0 0 1775 393" fill="none" xmlns="http://www.w3.org/2000/svg">
<path d="M183.932 300V303H186.082L186.773 300.964L183.932 300ZM239.114 137.393L241.937 136.379L239.033 128.298L236.273 136.429L239.114 137.393ZM297.561 300L294.738 301.015L295.452 303H297.561V300ZM374.293 300V303H376.316L377.074 301.125L374.293 300ZM472.575 57.0698L475.356 58.1949L477.025 54.0698H472.575V57.0698ZM397.803 57.0698V54.0698H395.73L394.997 56.0084L397.803 57.0698ZM336.417 219.35L333.578 220.321L336.275 228.204L339.223 220.411L336.417 219.35ZM280.909 57.0698L283.747 56.0989L283.053 54.0698H280.909V57.0698ZM199.932 57.0698V54.0698H197.751L197.078 56.1445L199.932 57.0698ZM145.73 224.248L142.921 225.301L145.935 233.34L148.583 225.173L145.73 224.248ZM83.0381 57.0698L85.8471 56.0164L85.1171 54.0698H83.0381V57.0698ZM0.102213 57.0698V54.0698H-4.37549L-2.67228 58.2109L0.102213 57.0698ZM100.017 300L97.2426 301.141L98.0071 303H100.017V300ZM186.773 300.964L241.955 138.358L236.273 136.429L181.092 299.036L186.773 300.964ZM236.291 138.408L294.738 301.015L300.384 298.985L241.937 136.379L236.291 138.408ZM297.561 303H374.293V297H297.561V303ZM377.074 301.125L475.356 58.1949L469.794 55.9447L371.512 298.875L377.074 301.125ZM472.575 54.0698H397.803V60.0698H472.575V54.0698ZM394.997 56.0084L333.611 218.288L339.223 220.411L400.608 58.1312L394.997 56.0084ZM339.255 218.379L283.747 56.0989L278.07 58.0407L333.578 220.321L339.255 218.379ZM280.909 54.0698H199.932V60.0698H280.909V54.0698ZM197.078 56.1445L142.876 223.322L148.583 225.173L202.786 57.995L197.078 56.1445ZM148.539 223.194L85.8471 56.0164L80.2291 58.1232L142.921 225.301L148.539 223.194ZM83.0381 54.0698H0.102213V60.0698H83.0381V54.0698ZM-2.67228 58.2109L97.2426 301.141L102.792 298.859L2.87671 55.9287L-2.67228 58.2109ZM100.017 303H183.932V297H100.017V303ZM635.128 49.825C557.78 49.825 514.068 69.122 489.741 94.5453C465.424 119.958 461.032 150.917 461.032 172.984H467.032C467.032 151.624 471.293 122.503 494.076 98.6935C516.85 74.8941 558.686 55.825 635.128 55.825V49.825ZM461.032 172.984V182.78H467.032V172.984H461.032ZM461.032 182.78C461.032 204.523 465.425 235.794 489.724 261.609C514.045 287.447 557.759 307.245 635.128 307.245V301.245C558.707 301.245 516.873 281.697 494.093 257.496C471.292 233.272 467.032 203.81 467.032 182.78H461.032ZM635.128 307.245H649.169V301.245H635.128V307.245ZM649.169 307.245C726.216 307.245 769.846 287.445 794.164 261.609C818.46 235.797 822.938 204.531 822.938 182.78H816.938C816.938 203.803 812.6 233.269 789.795 257.496C767.014 281.699 725.259 301.245 649.169 301.245V307.245ZM822.938 182.78V172.984H816.938V182.78H822.938ZM822.938 172.984C822.938 150.902 818.376 119.95 794.023 94.5435C769.659 69.1252 726.033 49.825 649.169 49.825V55.825C725.115 55.825 766.874 74.8909 789.692 98.6954C812.521 122.512 816.938 151.639 816.938 172.984H822.938ZM649.169 49.825H635.128V55.825H649.169V49.825ZM737.267 175.27V179.841H743.267V175.27H737.267ZM737.267 179.841C737.267 193.291 733.295 208.693 719.74 220.784C706.13 232.925 682.399 242.145 641.985 242.145V248.145C683.202 248.145 708.611 238.753 723.735 225.262C738.914 211.721 743.267 194.471 743.267 179.841H737.267ZM641.985 242.145C601.424 242.145 577.699 232.688 564.128 220.354C550.601 208.06 546.703 192.486 546.703 179.188H540.703C540.703 193.644 544.968 211.048 560.093 224.794C575.174 238.501 600.59 248.145 641.985 248.145V242.145ZM546.703 179.188V175.27H540.703V179.188H546.703ZM546.703 175.27C546.703 161.765 550.297 146.812 563.598 135.16C576.985 123.432 600.706 114.598 641.985 114.598V108.598C600.002 108.598 574.582 117.56 559.644 130.647C544.619 143.811 540.703 160.694 540.703 175.27H546.703ZM641.985 114.598C682.596 114.598 706.334 123.425 719.896 135.172C733.377 146.847 737.267 161.817 737.267 175.27H743.267C743.267 160.641 738.995 143.776 723.824 130.636C708.734 117.567 683.331 108.598 641.985 108.598V114.598ZM993.534 300V303H995.684L996.375 300.964L993.534 300ZM1048.72 137.393L1051.54 136.379L1048.63 128.298L1045.87 136.429L1048.72 137.393ZM1107.16 300L1104.34 301.015L1105.05 303H1107.16V300ZM1183.89 300V303H1185.92L1186.68 301.125L1183.89 300ZM1282.18 57.0698L1284.96 58.1949L1286.63 54.0698H1282.18V57.0698ZM1207.4 57.0698V54.0698H1205.33L1204.6 56.0084L1207.4 57.0698ZM1146.02 219.35L1143.18 220.321L1145.88 228.204L1148.82 220.411L1146.02 219.35ZM1090.51 57.0698L1093.35 56.0989L1092.65 54.0698H1090.51V57.0698ZM1009.53 57.0698V54.0698H1007.35L1006.68 56.1445L1009.53 57.0698ZM955.331 224.248L952.522 225.301L955.537 233.34L958.185 225.173L955.331 224.248ZM892.64 57.0698L895.449 56.0164L894.719 54.0698H892.64V57.0698ZM809.704 57.0698V54.0698H805.226L806.929 58.2109L809.704 57.0698ZM909.619 300L906.844 301.141L907.609 303H909.619V300ZM996.375 300.964L1051.56 138.358L1045.87 136.429L990.693 299.036L996.375 300.964ZM1045.89 138.408L1104.34 301.015L1109.99 298.985L1051.54 136.379L1045.89 138.408ZM1107.16 303H1183.89V297H1107.16V303ZM1186.68 301.125L1284.96 58.1949L1279.4 55.9447L1181.11 298.875L1186.68 301.125ZM1282.18 54.0698H1207.4V60.0698H1282.18V54.0698ZM1204.6 56.0084L1143.21 218.288L1148.82 220.411L1210.21 58.1312L1204.6 56.0084ZM1148.86 218.379L1093.35 56.0989L1087.67 58.0407L1143.18 220.321L1148.86 218.379ZM1090.51 54.0698H1009.53V60.0698H1090.51V54.0698ZM1006.68 56.1445L952.478 223.322L958.185 225.173L1012.39 57.995L1006.68 56.1445ZM958.14 223.194L895.449 56.0164L889.831 58.1232L952.522 225.301L958.14 223.194ZM892.64 54.0698H809.704V60.0698H892.64V54.0698ZM806.929 58.2109L906.844 301.141L912.393 298.859L812.478 55.9287L806.929 58.2109ZM909.619 303H993.534V297H909.619V303ZM1287.32 57.0698V54.0698H1283.9L1284.35 57.4659L1287.32 57.0698ZM1309.85 226.207L1306.88 226.603L1307.23 229.207H1309.85V226.207ZM1353.61 226.207V229.207H1356.23L1356.58 226.603L1353.61 226.207ZM1376.14 57.0698L1379.11 57.4659L1379.56 54.0698H1376.14V57.0698ZM1371.24 242.859H1374.24V239.859H1371.24V242.859ZM1292.22 242.859V239.859H1289.22V242.859H1292.22ZM1292.22 300H1289.22V303H1292.22V300ZM1371.24 300V303H1374.24V300H1371.24ZM1284.35 57.4659L1306.88 226.603L1312.83 225.811L1290.3 56.6737L1284.35 57.4659ZM1309.85 229.207H1353.61V223.207H1309.85V229.207ZM1356.58 226.603L1379.11 57.4659L1373.16 56.6737L1350.63 225.811L1356.58 226.603ZM1376.14 54.0698H1287.32V60.0698H1376.14V54.0698ZM1371.24 239.859H1292.22V245.859H1371.24V239.859ZM1289.22 242.859V300H1295.22V242.859H1289.22ZM1292.22 303H1371.24V297H1292.22V303ZM1374.24 300V242.859H1368.24V300H1374.24Z" fill="#2A2A30"/>
<path d="M1427.23 299H1424.23V302H1427.23V299ZM1460.27 299V302H1463.27V299H1460.27ZM1460.27 141.618L1463.24 141.192L1457.27 141.618H1460.27ZM1482.85 299L1479.88 299.426L1480.25 302H1482.85V299ZM1497.57 299V302H1500.18L1500.54 299.42L1497.57 299ZM1519.82 141.618H1522.82L1516.85 141.198L1519.82 141.618ZM1519.82 299H1516.82V302H1519.82V299ZM1554.51 299V302H1557.51V299H1554.51ZM1554.51 55.5657H1557.51V52.5657H1554.51V55.5657ZM1510.33 55.5657V52.5657H1507.72L1507.36 55.1499L1510.33 55.5657ZM1492.34 184.154L1489.37 184.562L1495.31 184.57L1492.34 184.154ZM1474.67 55.5657L1477.64 55.1573L1477.29 52.5657H1474.67V55.5657ZM1427.23 55.5657V52.5657H1424.23V55.5657H1427.23ZM1427.23 302H1460.27V296H1427.23V302ZM1463.27 299V141.618H1457.27V299H1463.27ZM1457.3 142.044L1479.88 299.426L1485.82 298.574L1463.24 141.192L1457.3 142.044ZM1482.85 302H1497.57V296H1482.85V302ZM1500.54 299.42L1522.79 142.038L1516.85 141.198L1494.6 298.58L1500.54 299.42ZM1516.82 141.618V299H1522.82V141.618H1516.82ZM1519.82 302H1554.51V296H1519.82V302ZM1557.51 299V55.5657H1551.51V299H1557.51ZM1554.51 52.5657H1510.33V58.5657H1554.51V52.5657ZM1507.36 55.1499L1489.37 183.738L1495.31 184.57L1513.3 55.9815L1507.36 55.1499ZM1495.31 183.746L1477.64 55.1573L1471.7 55.9741L1489.37 184.562L1495.31 183.746ZM1474.67 52.5657H1427.23V58.5657H1474.67V52.5657ZM1424.23 55.5657V299H1430.23V55.5657H1424.23ZM1629.98 299L1626.99 299.32L1627.28 302H1629.98V299ZM1665.64 299V302H1669.06L1668.62 298.612L1665.64 299ZM1633.9 55.5657L1636.88 55.1779L1636.54 52.5657H1633.9V55.5657ZM1590.06 55.5657V52.5657H1587.4L1587.08 55.2015L1590.06 55.5657ZM1560.28 299L1557.31 298.636L1556.9 302H1560.28V299ZM1593.33 299V302H1596.05L1596.32 299.299L1593.33 299ZM1597.91 253.192V250.192H1595.2L1594.93 252.894L1597.91 253.192ZM1625.07 253.192L1628.05 252.873L1627.77 250.192H1625.07V253.192ZM1611.33 126.895L1614.31 126.569L1608.34 126.58L1611.33 126.895ZM1621.14 216.874V219.874H1624.49L1624.13 216.548L1621.14 216.874ZM1601.84 216.874L1598.86 216.559L1598.51 219.874H1601.84V216.874ZM1629.98 302H1665.64V296H1629.98V302ZM1668.62 298.612L1636.88 55.1779L1630.93 55.9536L1662.67 299.388L1668.62 298.612ZM1633.9 52.5657H1590.06V58.5657H1633.9V52.5657ZM1587.08 55.2015L1557.31 298.636L1563.26 299.364L1593.04 55.9299L1587.08 55.2015ZM1560.28 302H1593.33V296H1560.28V302ZM1596.32 299.299L1600.9 253.491L1594.93 252.894L1590.35 298.701L1596.32 299.299ZM1597.91 256.192H1625.07V250.192H1597.91V256.192ZM1622.09 253.512L1626.99 299.32L1632.96 298.68L1628.05 252.873L1622.09 253.512ZM1608.35 127.22L1618.16 217.199L1624.13 216.548L1614.31 126.569L1608.35 127.22ZM1621.14 213.874H1601.84V219.874H1621.14V213.874ZM1604.82 217.188L1614.31 127.209L1608.34 126.58L1598.86 216.559L1604.82 217.188ZM1741.05 275.115L1743.94 274.302L1741.24 264.693L1738.2 274.2L1741.05 275.115ZM1747.27 299L1744.36 299.728L1744.93 302H1747.27V299ZM1768.21 299V302H1771.21V299H1768.21ZM1768.21 151.107H1771.21V148.107H1768.21V151.107ZM1716.51 151.107V148.107H1713.51V151.107H1716.51ZM1716.51 188.408H1713.51V191.408H1716.51V188.408ZM1733.2 188.408H1736.2V185.408H1733.2V188.408ZM1730.58 132.784H1727.58V135.784H1730.58V132.784ZM1766.57 132.784V135.784H1769.57V132.784H1766.57ZM1707.35 305.272C1717.75 305.272 1726.24 299.982 1732.34 293.882C1738.41 287.806 1742.44 280.611 1743.91 276.029L1738.2 274.2C1737.04 277.798 1733.55 284.182 1728.09 289.639C1722.66 295.074 1715.61 299.272 1707.35 299.272V305.272ZM1738.17 275.927C1741.09 286.343 1744.03 298.393 1744.36 299.728L1750.18 298.272C1749.86 296.99 1746.9 284.826 1743.94 274.302L1738.17 275.927ZM1747.27 302H1768.21V296H1747.27V302ZM1771.21 299V151.107H1765.21V299H1771.21ZM1768.21 148.107H1716.51V154.107H1768.21V148.107ZM1713.51 151.107V188.408H1719.51V151.107H1713.51ZM1716.51 191.408H1733.2V185.408H1716.51V191.408ZM1730.2 188.408V249.266H1736.2V188.408H1730.2ZM1730.2 249.266C1730.2 253.436 1729.23 256.602 1727.56 258.668C1725.97 260.633 1723.45 261.972 1719.46 261.972V267.972C1724.95 267.972 1729.31 266.038 1732.22 262.441C1735.05 258.945 1736.2 254.258 1736.2 249.266H1730.2ZM1719.46 261.972C1716.58 261.972 1714.5 260.903 1713.02 258.845C1711.44 256.647 1710.35 253.022 1710.35 247.63H1704.35C1704.35 253.69 1705.55 258.736 1708.15 262.345C1710.84 266.096 1714.81 267.972 1719.46 267.972V261.972ZM1710.35 247.63V105.3H1704.35V247.63H1710.35ZM1710.35 105.3C1710.35 100.139 1711.23 96.6713 1712.63 94.5711C1713.89 92.6857 1715.75 91.6126 1718.8 91.6126V85.6126C1714 85.6126 1710.14 87.4842 1707.64 91.2429C1705.27 94.7869 1704.35 99.6623 1704.35 105.3H1710.35ZM1718.8 91.6126C1722.66 91.6126 1724.49 92.7875 1725.6 94.52C1726.91 96.5735 1727.58 99.9943 1727.58 105.3H1733.58C1733.58 99.8074 1732.95 94.8847 1730.66 91.294C1728.16 87.3824 1724.11 85.6126 1718.8 85.6126V91.6126ZM1727.58 105.3V132.784H1733.58V105.3H1727.58ZM1730.58 135.784H1766.57V129.784H1730.58V135.784ZM1769.57 132.784V107.917H1763.57V132.784H1769.57ZM1769.57 107.917C1769.57 93.5285 1768.47 79.0914 1761.9 68.2445C1755.12 57.0408 1742.93 50.2753 1722.4 50.2753V56.2753C1741.47 56.2753 1751.37 62.4341 1756.77 71.353C1762.39 80.6287 1763.57 93.5125 1763.57 107.917H1769.57ZM1722.4 50.2753H1715.2V56.2753H1722.4V50.2753ZM1715.2 50.2753C1696.88 50.2753 1684.54 56.924 1676.9 67.5117C1669.39 77.9287 1666.72 91.7442 1666.72 105.627H1672.72C1672.72 92.3521 1675.3 79.9918 1681.77 71.0224C1688.12 62.2237 1698.52 56.2753 1715.2 56.2753V50.2753ZM1666.72 105.627V257.773H1672.72V105.627H1666.72ZM1666.72 257.773C1666.72 270.886 1670.3 282.695 1676.92 291.3C1683.58 299.964 1693.27 305.272 1705.06 305.272V299.272C1695.26 299.272 1687.28 294.927 1681.67 287.641C1676.02 280.295 1672.72 269.855 1672.72 257.773H1666.72ZM1705.06 305.272H1707.35V299.272H1705.06V305.272Z" fill="#2A2A30"/>
</svg>
