<svg width="281" height="39" viewBox="0 0 281 39" fill="none" xmlns="http://www.w3.org/2000/svg">
<path d="M148.957 38.0639H165.603V17.4564L176.935 38.0639H185.208L196.59 17.4564V38.0639H213.386V0.759881H191.776L181.548 19.2615L171.57 0.759881H148.957V38.0639Z" fill="white"/>
<path d="M222.977 25.8799H221.473L222.225 11.6904L222.977 25.8799ZM223.629 38.0639H229.796L226.437 0.759881H218.414L215.306 38.0639H220.771L221.122 31.3451H223.278L223.629 38.0639Z" fill="white"/>
<path d="M253.568 38.6154C263.095 38.6154 267.607 34.6042 268.76 33.3006C269.462 34.504 270.264 36.7602 270.565 38.0639H280.142V17.2057H254.972V24.1752H265.652C265.401 25.3284 263.546 28.6877 255.423 28.6877C247 28.6877 244.593 23.7239 244.593 19.5122V19.0108C244.593 14.5985 246.799 10.136 255.423 10.136C263.796 10.136 265.1 13.1444 265.501 14.0971H279.691V13.8965C279.691 8.48141 275.73 0.158203 256.276 0.158203H254.521C235.317 0.158203 230.554 10.5371 230.554 18.7601V19.7629C230.554 28.2866 235.568 38.6154 252.716 38.6154H253.568Z" fill="white"/>
<path d="M28.6311 37.9997L35.8512 14.6847L43.0212 37.9997H58.8654L71.3 0.695733H58.1133L50.7929 25.3144L43.5728 0.695733H29.1325L21.9124 25.3144L14.592 0.695733H0.101562L12.8872 37.9997H28.6311Z" fill="white"/>
<path d="M92.3501 10.7237C92.3501 4.35594 89.6927 0.194336 83.0743 0.194336H81.4698C74.9015 0.194336 72.1939 4.3058 72.1939 10.7237V28.423C72.1939 34.8911 75.453 38.5513 81.5199 38.5513H83.1244C88.7902 38.5513 92.3501 34.8911 92.3501 28.423V10.7237ZM83.7762 28.9746C83.7762 30.1278 83.3751 30.8297 82.3222 30.8297C81.169 30.8297 80.7678 30.1278 80.7678 28.9746V9.87131C80.7678 8.4674 81.1188 7.76544 82.272 7.76544C83.2748 7.76544 83.7762 8.4674 83.7762 9.87131V28.9746Z" fill="white"/>
<path d="M104.776 0.695733L102.771 23.8102L101.066 0.695733H92.5922L97.3054 37.9997H106.882L108.487 18.2447L110.091 37.9997H119.467L124.23 0.695733H116.308L114.553 23.6096L112.548 0.695733H104.776Z" fill="white"/>
<path d="M126.833 0.695733L131.897 24.5121H138.165L143.179 0.695733H126.833ZM141.875 27.2197H128.137V37.9997H141.875V27.2197Z" fill="white"/>
</svg>
