<svg width="281" height="39" viewBox="0 0 281 39" fill="none" xmlns="http://www.w3.org/2000/svg">
<path d="M148.956 38.0644H165.602V17.4569L176.934 38.0644H185.207L196.588 17.4569V38.0644H213.385V0.760369H191.775L181.546 19.2619L171.569 0.760369H148.956V38.0644Z" fill="#161616"/>
<path d="M222.976 25.8804H221.472L222.224 11.6908L222.976 25.8804ZM223.628 38.0644H229.795L226.436 0.760369H218.413L215.305 38.0644H220.77L221.121 31.3456H223.277L223.628 38.0644Z" fill="#161616"/>
<path d="M253.567 38.6159C263.093 38.6159 267.606 34.6047 268.759 33.3011C269.461 34.5044 270.263 36.7607 270.564 38.0644H280.141V17.2062H254.971V24.1756H265.65C265.4 25.3289 263.545 28.6882 255.422 28.6882C246.998 28.6882 244.592 23.7244 244.592 19.5126V19.0112C244.592 14.5989 246.798 10.1365 255.422 10.1365C263.795 10.1365 265.099 13.1449 265.5 14.0976H279.69V13.897C279.69 8.48189 275.729 0.158691 256.274 0.158691H254.519C235.316 0.158691 230.553 10.5376 230.553 18.7606V19.7633C230.553 28.2871 235.567 38.6159 252.714 38.6159H253.567Z" fill="#161616"/>
<path d="M28.6299 38.0002L35.85 14.6852L43.02 38.0002H58.8642L71.2988 0.696221H58.1121L50.7917 25.3149L43.5715 0.696221H29.1313L21.9111 25.3149L14.5907 0.696221H0.100342L12.886 38.0002H28.6299Z" fill="#161616"/>
<path d="M92.3489 10.7242C92.3489 4.35643 89.6915 0.194824 83.0731 0.194824H81.4686C74.9003 0.194824 72.1927 4.30628 72.1927 10.7242V28.4235C72.1927 34.8916 75.4518 38.5518 81.5187 38.5518H83.1232C88.789 38.5518 92.3489 34.8916 92.3489 28.4235V10.7242ZM83.775 28.9751C83.775 30.1283 83.3739 30.8302 82.321 30.8302C81.1677 30.8302 80.7666 30.1283 80.7666 28.9751V9.8718C80.7666 8.46789 81.1176 7.76593 82.2708 7.76593C83.2736 7.76593 83.775 8.46789 83.775 9.8718V28.9751Z" fill="#161616"/>
<path d="M104.775 0.696221L102.769 23.8107L101.065 0.696221H92.591L97.3041 38.0002H106.881L108.485 18.2451L110.09 38.0002H119.466L124.229 0.696221H116.307L114.552 23.6101L112.547 0.696221H104.775Z" fill="#161616"/>
<path d="M126.832 0.696221L131.896 24.5126H138.163L143.177 0.696221H126.832ZM141.874 27.2202H128.135V38.0002H141.874V27.2202Z" fill="#161616"/>
</svg>
