<svg width="31" height="27" viewBox="0 0 31 27" fill="none" xmlns="http://www.w3.org/2000/svg">
<path d="M2.9717 11.8219C11.9764 7.62314 23.6285 2.50408 25.2375 1.79541C29.4564 -0.0588679 30.7511 0.296148 30.1057 4.40342C29.6419 7.35551 28.3047 17.128 27.2381 23.2111C26.6056 26.8186 25.1859 27.246 22.9547 25.6853C21.8816 24.9343 16.4646 21.137 15.2885 20.2453C14.2154 19.4329 12.7352 18.4552 14.5915 16.53C15.2524 15.8445 19.5821 11.4614 22.956 8.05053C23.3979 7.60266 22.8426 6.86668 22.3325 7.2258C17.7851 10.4223 11.4805 14.8587 10.6779 15.4362C9.46566 16.3088 8.3011 16.7088 6.2116 16.0725C4.63223 15.5919 3.09022 15.0184 2.4899 14.7999C0.177528 13.9588 0.726314 12.8692 2.9717 11.8219Z" fill="black" stroke="black" stroke-width="0.573774"/>
</svg>
