<svg width="36" height="32" viewBox="0 0 36 32" fill="none" xmlns="http://www.w3.org/2000/svg">
<path d="M3.29091 13.8962C13.7535 9.01766 27.292 3.06983 29.1615 2.24643C34.0635 0.0919482 35.5677 0.504441 34.8179 5.27667C34.279 8.70671 32.7253 20.0614 31.486 27.1293C30.7511 31.3209 29.1016 31.8174 26.5092 30.004C25.2623 29.1315 18.9683 24.7194 17.6017 23.6834C16.3549 22.7394 14.6351 21.6035 16.792 19.3665C17.5598 18.5701 22.5906 13.4774 26.5107 9.51424C27.0241 8.99387 26.3789 8.13874 25.7862 8.55599C20.5025 12.27 13.1772 17.4246 12.2447 18.0957C10.8362 19.1095 9.48314 19.5743 7.05535 18.835C5.22028 18.2766 3.42862 17.6102 2.73111 17.3564C0.0443709 16.3791 0.682005 15.113 3.29091 13.8962Z" fill="white" stroke="white" stroke-width="0.573774"/>
</svg>
