<svg width="38" height="34" viewBox="0 0 38 34" fill="none" xmlns="http://www.w3.org/2000/svg">
<path d="M3.43768 14.7224C14.5705 9.5313 28.9763 3.20243 30.9656 2.32628C36.1816 0.033776 37.7822 0.472694 36.9843 5.55064C36.4109 9.20042 34.7577 21.2825 33.439 28.8032C32.657 33.2633 30.9019 33.7917 28.1433 31.8621C26.8166 30.9336 20.1194 26.2389 18.6653 25.1365C17.3386 24.1321 15.5086 22.9234 17.8037 20.5431C18.6207 19.6956 23.9737 14.2767 28.1449 10.0597C28.6912 9.50597 28.0048 8.59606 27.3741 9.04005C21.7519 12.992 13.9573 18.4768 12.9651 19.1909C11.4664 20.2696 10.0266 20.7642 7.44327 19.9776C5.49064 19.3833 3.5842 18.6743 2.84201 18.4042C-0.016849 17.3643 0.661634 16.0172 3.43768 14.7224Z" stroke="black"/>
</svg>
