<svg width="563" height="183" viewBox="0 0 563 183" fill="none" xmlns="http://www.w3.org/2000/svg">
<path d="M69.3338 36.3813C69.3338 15.2189 59.8226 1.42771 37.2336 1.42771H32.478C9.88897 1.42771 0.377793 14.5056 0.377793 36.3813V147.424C0.377793 169.3 11.5534 181.664 32.478 181.664H37.4714C57.2071 181.664 69.3338 169.538 69.3338 147.424V36.3813ZM38.4225 150.04C38.4225 153.131 37.2336 154.795 34.8558 154.795C32.7158 154.795 31.5269 153.131 31.5269 150.04V33.0524C31.5269 29.4857 32.7158 27.8212 34.8558 27.8212C37.2336 27.8212 38.4225 29.4857 38.4225 33.0524V150.04ZM106.139 180H186.271V115.086H287.803V180H368.172V3.09218H287.803V63.4881H186.271V3.09218H106.139V180ZM412.602 122.22H405.468L409.035 54.9281L412.602 122.22ZM415.693 180H444.94L429.008 3.09218H390.964L376.221 180H402.139L403.804 148.138H414.028L415.693 180ZM508.956 146.949C500.634 146.949 498.018 141.48 498.018 131.969V49.9347C498.018 40.6613 500.634 35.4302 508.956 35.4302C517.754 35.4302 520.37 41.1369 520.37 49.9347V70.8593H562.219V47.3191C562.219 17.8345 548.19 0.714385 512.285 0.714385H504.914C467.82 0.714385 454.029 20.4501 454.029 51.5992V130.78C454.029 162.88 468.058 182.378 505.389 182.378H512.761C549.379 182.378 562.219 160.264 562.219 134.584V104.624H520.37V131.969C520.37 141.242 517.754 146.949 508.956 146.949Z" fill="black"/>
</svg>
