<svg width="340" height="116" viewBox="0 0 340 116" fill="none" xmlns="http://www.w3.org/2000/svg">
<path d="M137.43 114.492H162.684V83.2278L179.876 114.492H192.427L209.694 83.2278V114.492H235.177V57.8972H202.392L186.874 85.9662L171.736 57.8972H137.43V114.492Z" fill="#161616"/>
<path d="M249.727 96.0072H247.445L248.586 74.48L249.727 96.0072ZM250.716 114.492H260.073L254.976 57.8972H242.805L238.089 114.492H246.38L246.913 104.299H250.184L250.716 114.492Z" fill="#161616"/>
<path d="M299.56 115.328C314.013 115.328 320.859 109.243 322.609 107.265C323.674 109.091 324.891 112.514 325.347 114.492H339.876V82.8475H301.69V93.4209H317.892C317.512 95.1705 314.698 100.267 302.375 100.267C289.595 100.267 285.944 92.7363 285.944 86.3466V85.5859C285.944 78.8919 289.291 72.1219 302.375 72.1219C315.078 72.1219 317.056 76.686 317.664 78.1312H339.191V77.827C339.191 69.6116 333.182 56.9844 303.668 56.9844H301.005C271.871 56.9844 264.645 72.7304 264.645 85.2056V86.7269C264.645 99.6585 272.252 115.328 298.267 115.328H299.56Z" fill="#161616"/>
<path d="M44.0072 58.3396L54.961 22.968L65.8387 58.3396H89.8762L108.741 1.74505H88.7351L77.6292 39.0944L66.6755 1.74505H44.7679L33.8141 39.0944L22.7082 1.74505H0.724609L20.1219 58.3396H44.0072Z" fill="#161616"/>
<path d="M140.676 16.9586C140.676 7.29801 136.645 0.984375 126.604 0.984375H124.17C114.205 0.984375 110.097 7.22194 110.097 16.9586V43.8106C110.097 53.6233 115.042 59.1763 124.246 59.1763H126.68C135.276 59.1763 140.676 53.6233 140.676 43.8106V16.9586ZM127.669 44.6473C127.669 46.3969 127.06 47.4618 125.463 47.4618C123.713 47.4618 123.105 46.3969 123.105 44.6473V15.6655C123.105 13.5356 123.637 12.4706 125.387 12.4706C126.908 12.4706 127.669 13.5356 127.669 15.6655V44.6473Z" fill="#161616"/>
<path d="M157.458 58.3396L158.751 26.0868L159.969 58.3396H170.846L175.486 1.74505H166.206L165.065 38.9422L163.392 1.74505H154.416L152.818 38.714L151.677 1.74505H141.712L146.352 58.3396H157.458Z" fill="#161616"/>
<path d="M179.471 1.74505L187.154 37.8773H196.662L204.269 1.74505H179.471ZM202.291 41.985H181.449V58.3396H202.291V41.985Z" fill="#161616"/>
</svg>
