<svg width="37" height="37" viewBox="0 0 37 37" fill="none" xmlns="http://www.w3.org/2000/svg">
<g clip-path="url(#clip0_259_3281)">
<path d="M35.677 19.706C34.9068 28.1881 28.1924 34.9044 19.7108 35.677L19.7064 35.6775C19.7064 35.6775 19.6979 35.6781 19.6843 35.6781C19.6136 35.6781 19.5425 35.6511 19.4872 35.6006C19.4279 35.5458 19.3939 35.4678 19.3946 35.3848C19.4289 32.4909 19.5502 30.059 19.9356 28.0285C20.3201 26.0025 20.9617 24.4101 22.0126 23.1719C24.108 20.7028 27.9817 19.472 35.3707 19.3897C35.4816 19.3962 35.5565 19.4355 35.6016 19.484C35.6566 19.5433 35.6844 19.6236 35.6769 19.7071M35.6007 16.6945C35.5457 16.7541 35.4686 16.7879 35.3884 16.7879H35.3873H35.3862H35.3851H35.384H35.3829C27.9863 16.7068 24.1089 15.4761 22.0122 13.0056C20.9612 11.7674 20.3195 10.175 19.9349 8.14903C19.5494 6.11855 19.4281 3.68658 19.3938 0.792741C19.3931 0.709712 19.4271 0.631707 19.4865 0.576878L19.4874 0.575997C19.5429 0.524485 19.6248 0.494498 19.7138 0.500841C28.1935 1.2751 34.9059 7.9912 35.677 16.4711C35.6841 16.5533 35.6564 16.6341 35.6007 16.6945ZM0.578427 16.6963L0.57734 16.6951C0.522379 16.6359 0.494623 16.5557 0.501908 16.4724C1.26937 8.0147 7.96198 1.2995 16.416 0.50437C16.4982 0.496871 16.5803 0.524183 16.6419 0.580006C16.7015 0.635403 16.7354 0.714329 16.7346 0.796528C16.6999 3.6884 16.5785 6.11814 16.1939 8.14753C15.8101 10.1725 15.1702 11.7642 14.1224 13.0022C12.0324 15.4718 8.16877 16.7037 0.797033 16.7887H0.796033H0.795015H0.793997H0.792979H0.791961H0.790961C0.71008 16.7887 0.632353 16.7548 0.578427 16.6963ZM0.743247 19.3857L0.768256 19.3885L0.79342 19.3888C8.16739 19.4735 12.0318 20.7054 14.1219 23.1752C15.1697 24.4132 15.8095 26.0048 16.1932 28.0296C16.5777 30.0589 16.6991 32.489 16.7338 35.3806C16.7346 35.463 16.7003 35.5421 16.6403 35.5975C16.5856 35.6474 16.5155 35.6742 16.444 35.6742C16.4389 35.6742 16.4346 35.6741 16.431 35.674C16.4243 35.6738 16.4201 35.6735 16.4179 35.6733L16.4166 35.6732C7.96227 34.8783 1.2686 28.163 0.501118 19.7052C0.493933 19.6229 0.521621 19.5419 0.577431 19.4815L0.578311 19.4805C0.623485 19.4313 0.659168 19.4068 0.683127 19.3955C0.702145 19.3865 0.718582 19.3829 0.743247 19.3857Z" stroke="black"/>
</g>
<defs>
<clipPath id="clip0_259_3281">
<rect width="37" height="37" fill="white"/>
</clipPath>
</defs>
</svg>
