<svg width="375" height="57" viewBox="0 0 375 57" fill="none" xmlns="http://www.w3.org/2000/svg">
<path d="M245.099 33.6887C246.61 26.4697 247.517 21.5066 248.349 17.3707C248.122 22.409 247.971 27.4472 247.971 34.967V56.4736H259.384V0.526387H243.436L239.732 19.4763C238.75 24.8905 238.221 28.2744 237.843 31.2071C237.465 28.2744 237.012 24.8905 235.878 19.4763L232.325 0.526387H216V56.4736H227.186V34.967C227.186 27.4472 227.035 22.1834 226.808 17.3707C227.639 21.5818 228.471 26.5449 229.982 33.839L234.744 56.4736H240.262L245.099 33.6887Z" fill="#161616"/>
<path d="M314.095 33.3127H298.223L306.083 16.0924L314.095 33.3127ZM324.827 56.4736H353.095L324.298 0.526387H289.077L262.019 56.4736H287.793L291.269 48.7282H321.275L324.827 56.4736Z" fill="#161616"/>
<path d="M361.093 57C364.343 57 366.308 54.9697 367.593 52.9393C367.895 53.6161 368.349 55.6464 368.576 56.4736H375V23.5369H363.965V30.8311H365.93V47.5251C365.93 48.653 365.477 49.2546 364.57 49.2546C363.663 49.2546 363.209 48.653 363.209 47.5251V9.32454C363.209 8.34696 363.587 7.89578 364.267 7.89578C365.174 7.89578 365.401 8.42216 365.401 9.32454V21.5066H374.622V8.94855C374.622 4.43668 372.43 0 364.797 0H363.512C355.954 0 353.384 4.51187 353.384 9.70053V47.7507C353.384 52.7137 355.802 57 360.866 57H361.093Z" fill="#161616"/>
<path d="M43.2051 56.4736L54.1393 21.5066L64.9975 56.4736H88.9919L107.823 0.526387H87.853L76.7669 37.4485L65.8328 0.526387H43.9644L33.0303 37.4485L21.9443 0.526387H0L19.3626 56.4736H43.2051Z" fill="#161616"/>
<path d="M130.741 11.0541C130.741 4.36148 127.704 0 120.491 0H118.972C111.758 0 108.721 4.13589 108.721 11.0541V46.1715C108.721 53.0897 112.29 57 118.972 57H120.566C126.869 57 130.741 53.1649 130.741 46.1715V11.0541ZM120.87 46.9987C120.87 47.9762 120.491 48.5026 119.731 48.5026C119.048 48.5026 118.668 47.9762 118.668 46.9987V10.0013C118.668 8.87335 119.048 8.34697 119.731 8.34697C120.491 8.34697 120.87 8.87335 120.87 10.0013V46.9987Z" fill="#161616"/>
<path d="M149.843 0.526387L146.806 35.1926L144.225 0.526387H131.392L138.53 56.4736H153.033L155.462 26.8456L157.892 56.4736H172.091L179.305 0.526387H167.308L164.65 34.8918L161.613 0.526387H149.843Z" fill="#161616"/>
<path d="M183.246 0.526387L190.915 36.2454H200.407L208 0.526387H183.246ZM206.026 40.3061H185.22V56.4736H206.026V40.3061Z" fill="#161616"/>
</svg>
