<svg width="17" height="17" viewBox="0 0 17 17" fill="none" xmlns="http://www.w3.org/2000/svg">
<path d="M3.83213 15.4073C3.03879 15.4073 2.53588 15.1381 2.21713 14.8194C1.59379 14.196 1.15463 12.8715 2.55713 10.0594L3.17338 8.83395C3.25129 8.67104 3.25129 8.33104 3.17338 8.16812L2.55713 6.9427C1.14754 4.13062 1.59379 2.79895 2.21713 2.1827C2.83338 1.55937 4.16505 1.11312 6.97005 2.5227L13.0334 5.55437C14.5421 6.3052 15.3709 7.35354 15.3709 8.50104C15.3709 9.64854 14.5421 10.6969 13.0405 11.4477L6.97713 14.4794C5.60296 15.1665 4.58296 15.4073 3.83213 15.4073ZM3.83213 2.65729C3.44963 2.65729 3.15213 2.74937 2.96796 2.93354C2.45088 3.44354 2.65629 4.76812 3.50629 6.46104L4.12255 7.69354C4.34921 8.15395 4.34921 8.84812 4.12255 9.30854L3.50629 10.534C2.65629 12.234 2.45088 13.5515 2.96796 14.0615C3.47796 14.5785 4.80255 14.3731 6.50254 13.5231L12.5659 10.4915C13.678 9.93895 14.3084 9.20937 14.3084 8.49395C14.3084 7.77854 13.6709 7.04895 12.5588 6.49645L6.49546 3.47187C5.41879 2.93354 4.49088 2.65729 3.83213 2.65729Z" fill="white"/>
<path d="M7.67827 9.03125H3.85327C3.56285 9.03125 3.32202 8.79042 3.32202 8.5C3.32202 8.20958 3.56285 7.96875 3.85327 7.96875H7.67827C7.96869 7.96875 8.20952 8.20958 8.20952 8.5C8.20952 8.79042 7.96869 9.03125 7.67827 9.03125Z" fill="white"/>
</svg>
