<svg width="48" height="48" viewBox="0 0 48 48" fill="none" xmlns="http://www.w3.org/2000/svg">
<circle cx="24" cy="24" r="22.5" stroke="#161616" stroke-width="3"/>
<path d="M30.393 32.0777C29.9662 32.0777 29.5394 31.9204 29.2024 31.5835L16.4886 18.8696C15.8371 18.2182 15.8371 17.14 16.4886 16.4886C17.14 15.8371 18.2182 15.8371 18.8696 16.4886L31.5835 29.2024C32.2349 29.8539 32.2349 30.9321 31.5835 31.5835C31.2465 31.9204 30.8198 32.0777 30.393 32.0777Z" fill="#161616"/>
<path d="M17.6791 32.0777C17.2523 32.0777 16.8255 31.9204 16.4886 31.5835C15.8371 30.9321 15.8371 29.8539 16.4886 29.2024L29.2024 16.4886C29.8539 15.8371 30.9321 15.8371 31.5835 16.4886C32.2349 17.14 32.2349 18.2182 31.5835 18.8696L18.8696 31.5835C18.5551 31.9204 18.1059 32.0777 17.6791 32.0777Z" fill="#161616"/>
</svg>
