<svg width="476" height="75" viewBox="0 0 476 75" fill="none" xmlns="http://www.w3.org/2000/svg">
<path d="M231.764 73.3951H256.704V28.7895L277.712 73.3951H294.02L315.219 28.7895V73.3951H340.544V2.02611H306.394L286.729 42.7947L267.448 2.02611H231.764V73.3951Z" fill="#161616"/>
<path d="M363.159 50.085H360.281L361.72 22.938L363.159 50.085ZM364.406 73.3951H376.205L369.778 2.02611H354.43L348.482 73.3951H358.938L359.61 60.541H363.735L364.406 73.3951Z" fill="#161616"/>
<path d="M425.042 74.4502C443.268 74.4502 451.901 66.7762 454.107 64.2821C455.45 66.5843 456.985 70.901 457.561 73.3951H475.883V33.4898H427.728V46.8236H448.16C447.68 49.0299 444.131 55.4569 428.591 55.4569C412.476 55.4569 407.871 45.9602 407.871 37.9024V36.9432C407.871 28.5017 412.092 19.9643 428.591 19.9643C444.611 19.9643 447.105 25.7198 447.872 27.5424H475.019V27.1587C475.019 16.7987 467.441 0.875 430.222 0.875H426.864C390.125 0.875 381.012 20.7317 381.012 36.4636V38.3821C381.012 54.6895 390.604 74.4502 423.411 74.4502H425.042Z" fill="#161616"/>
<path d="M20.7844 73.3933L22.4152 32.7207L23.95 73.3933H37.6674L43.5189 2.02438H31.8159L30.377 48.9322L28.2666 2.02438H16.9474L14.9329 48.6444L13.494 2.02438H0.927734L6.77922 73.3933H20.7844Z" fill="#161616"/>
<path d="M94.3005 0.777344C56.4097 0.777344 48.3519 21.2096 48.3519 36.0781V38.9559C48.3519 53.5366 56.3138 74.6404 94.3005 74.6404H98.6171C136.796 74.6404 144.566 53.5366 144.566 38.9559V36.0781C144.566 21.3055 136.7 0.777344 98.6171 0.777344H94.3005ZM117.515 37.9007C117.515 44.8074 114.445 54.9755 96.5068 54.9755C78.5686 54.9755 75.403 44.8074 75.403 37.9007V36.8455C75.403 29.9389 78.3767 20.1544 96.4108 20.1544C114.445 20.1544 117.515 29.9389 117.515 36.8455V37.9007Z" fill="#161616"/>
<path d="M172.717 2.02438L168.88 46.2463L165.618 2.02438H149.407L158.424 73.3933H176.746L179.816 35.5985L182.885 73.3933H200.823L209.936 2.02438H194.78L191.423 45.8626L187.586 2.02438H172.717Z" fill="#161616"/>
<path d="M210.407 2.02438C210.407 6.5329 213.381 48.8363 213.381 59.3881H219.904C219.904 48.9322 222.973 6.43698 222.973 2.02438H210.407ZM221.822 61.0189H211.462V73.3933H221.822V61.0189Z" fill="#161616"/>
</svg>
