<svg width="36" height="35" viewBox="0 0 36 35" fill="none" xmlns="http://www.w3.org/2000/svg">
<path d="M10.3637 1H25.6862C30.8674 1 35.05 5.09549 35.05 10.1687V25.172C35.05 30.2451 30.8674 34.3406 25.6862 34.3406H10.3637C5.18263 34.3406 1 30.2451 1 25.172V10.1687C1 5.09549 5.18263 1 10.3637 1ZM28.24 6.00109C27.7885 6.00109 27.3554 6.17673 27.0361 6.48936C26.7169 6.80199 26.5375 7.226 26.5375 7.66813C26.5375 8.11025 26.7169 8.53426 27.0361 8.84689C27.3554 9.15952 27.7885 9.33516 28.24 9.33516C28.6915 9.33516 29.1246 9.15952 29.4438 8.84689C29.7631 8.53426 29.9425 8.11025 29.9425 7.66813C29.9425 7.226 29.7631 6.80199 29.4438 6.48936C29.1246 6.17673 28.6915 6.00109 28.24 6.00109ZM18.025 10.1687C22.2663 10.1687 25.6862 13.5174 25.6862 17.6703C25.6862 21.8232 22.2663 25.172 18.025 25.172C13.7837 25.172 10.3637 21.8232 10.3637 17.6703C10.3637 13.5174 13.7837 10.1687 18.025 10.1687Z" stroke="black"/>
</svg>
