<svg width="244" height="59" viewBox="0 0 244 59" fill="none" xmlns="http://www.w3.org/2000/svg">
<path d="M124.645 57.6187H139.515V26.6064L149.637 57.6187H157.028L167.195 26.6064V57.6187H182.2V1.47969H162.895L153.758 29.3228L144.845 1.47969H124.645V57.6187Z" fill="#161616"/>
<path d="M190.767 39.283H189.424L190.096 17.929L190.767 39.283ZM191.35 57.6187H196.859L193.858 1.47969H186.692L183.915 57.6187H188.797L189.11 47.5077H191.036L191.35 57.6187Z" fill="#161616"/>
<path d="M220.11 58.4488C228.62 58.4488 232.651 52.4123 233.681 50.4505C234.308 52.2614 235.025 55.6569 235.294 57.6187H243.849V26.2292H221.364V36.7175H230.904C230.68 38.453 229.023 43.5085 221.767 43.5085C214.242 43.5085 212.093 36.0384 212.093 29.7001V28.9456C212.093 22.3055 214.063 15.5899 221.767 15.5899C229.247 15.5899 230.412 20.1173 230.77 21.5509H243.446V21.2491C243.446 13.0999 239.907 0.574219 222.529 0.574219H220.961C203.806 0.574219 199.551 16.1936 199.551 28.5683V30.0774C199.551 42.9049 204.03 58.4488 219.349 58.4488H220.11Z" fill="#161616"/>
<path d="M25.7896 57.6166L32.2511 22.4379L38.6677 57.6166H52.8471L63.9752 1.33075H52.174L45.6228 38.4764L39.1613 1.33075H26.2383L19.7769 38.4764L13.2256 1.33075H0.257812L11.7 57.6166H25.7896Z" fill="#161616"/>
<path d="M82.8134 16.4613C82.8134 6.85342 80.4352 0.574219 74.5122 0.574219H73.0763C67.1982 0.574219 64.7751 6.77776 64.7751 16.4613V43.1669C64.7751 52.9261 67.6918 58.4488 73.1212 58.4488H74.5571C79.6276 58.4488 82.8134 52.9261 82.8134 43.1669V16.4613ZM75.1404 43.999C75.1404 45.7391 74.7815 46.7982 73.8392 46.7982C72.8071 46.7982 72.4481 45.7391 72.4481 43.999V15.1752C72.4481 13.057 72.7622 11.9978 73.7943 11.9978C74.6917 11.9978 75.1404 13.057 75.1404 15.1752V43.999Z" fill="#161616"/>
<path d="M92.7128 57.6166L93.4756 25.5397L94.1936 57.6166H100.61L103.347 1.33075H97.873L97.2 38.3251L96.2128 1.33075H90.918L89.9757 38.0981L89.3026 1.33075H83.4245L86.1616 57.6166H92.7128Z" fill="#161616"/>
<path d="M105.698 1.33075L110.23 37.2659H115.839L120.326 1.33075H105.698ZM119.159 41.3512H106.864V57.6166H119.159V41.3512Z" fill="#161616"/>
</svg>
