<svg width="414" height="59" viewBox="0 0 414 59" fill="none" xmlns="http://www.w3.org/2000/svg">
<path d="M211.311 57.5698H236.565V26.3059L253.756 57.5698H266.308L283.575 26.3059V57.5698H309.058V0.975317H276.273L260.755 29.0444L245.617 0.975317H211.311V57.5698Z" fill="#AFFF05"/>
<path d="M323.608 39.0853H321.326L322.467 17.5581L323.608 39.0853ZM324.597 57.5698H333.953L328.857 0.975317H316.686L311.97 57.5698H320.261L320.794 47.3767H324.065L324.597 57.5698Z" fill="#AFFF05"/>
<path d="M373.441 58.4066C387.894 58.4066 394.74 52.3211 396.489 50.3434C397.554 52.169 398.772 55.5921 399.228 57.5698H413.757V25.9256H375.571V36.499H391.773C391.393 38.2486 388.578 43.3451 376.255 43.3451C363.476 43.3451 359.825 35.8144 359.825 29.4247V28.664C359.825 21.9701 363.172 15.2 376.255 15.2C388.959 15.2 390.937 19.7641 391.545 21.2094H413.072V20.9051C413.072 12.6898 407.063 0.0625 377.549 0.0625H374.886C345.752 0.0625 338.526 15.8086 338.526 28.2837V29.805C338.526 42.7366 346.133 58.4066 372.148 58.4066H373.441Z" fill="#AFFF05"/>
<path d="M44.0072 57.57L54.961 22.1985L65.8387 57.57H89.8762L108.741 0.975521H88.7351L77.6292 38.3249L66.6755 0.975521H44.7679L33.8141 38.3249L22.7082 0.975521H0.724609L20.1219 57.57H44.0072Z" fill="#161616"/>
<path d="M140.676 16.1891C140.676 6.52848 136.645 0.214844 126.604 0.214844H124.17C114.205 0.214844 110.097 6.45241 110.097 16.1891V43.0411C110.097 52.8538 115.042 58.4068 124.246 58.4068H126.68C135.276 58.4068 140.676 52.8538 140.676 43.0411V16.1891ZM127.669 43.8778C127.669 45.6274 127.06 46.6923 125.463 46.6923C123.713 46.6923 123.105 45.6274 123.105 43.8778V14.8959C123.105 12.766 123.637 11.7011 125.387 11.7011C126.908 11.7011 127.669 12.766 127.669 14.8959V43.8778Z" fill="#161616"/>
<path d="M157.458 57.57L158.751 25.3172L159.969 57.57H170.846L175.486 0.975521H166.206L165.065 38.1727L163.392 0.975521H154.416L152.818 37.9445L151.677 0.975521H141.712L146.352 57.57H157.458Z" fill="#161616"/>
<path d="M179.471 0.975521L187.154 37.1078H196.662L204.269 0.975521H179.471ZM202.291 41.2154H181.449V57.57H202.291V41.2154Z" fill="#161616"/>
</svg>
