<svg width="430" height="90" viewBox="0 0 430 90" fill="none" xmlns="http://www.w3.org/2000/svg">
<rect x="0.207031" y="0.945312" width="107.975" height="88.9713" fill="#AFFF05"/>
<rect x="190.242" y="0.945312" width="133.889" height="88.9713" fill="#AFFF05"/>
<rect x="353.502" y="0.945312" width="76.0143" height="88.9713" fill="#AFFF05"/>
<path d="M226.529 72.6669H251.852V41.1867L269.089 72.6669H281.674L298.988 41.1867V72.6669H324.539V15.6809H291.666L276.106 43.9441L260.928 15.6809H226.529V72.6669Z" fill="#2A2A30"/>
<path d="M340.198 54.0545H337.909L339.053 32.3784L340.198 54.0545ZM341.189 72.6669H350.571L345.46 15.6809H333.257L328.528 72.6669H336.842L337.375 62.4033H340.655L341.189 72.6669Z" fill="#2A2A30"/>
<path d="M389.096 73.5095C403.587 73.5095 410.452 67.3819 412.206 65.3905C413.274 67.2287 414.494 70.6755 414.952 72.6669H429.52V40.8038H391.231V51.4503H407.477C407.096 53.212 404.274 58.3438 391.918 58.3438C379.104 58.3438 375.443 50.761 375.443 44.3271V43.5611C375.443 36.8209 378.799 30.004 391.918 30.004C404.655 30.004 406.638 34.5996 407.248 36.0549H428.834V35.7485C428.834 27.4764 422.808 14.7617 393.214 14.7617H390.545C361.332 14.7617 354.087 30.6167 354.087 43.1782V44.71C354.087 57.7311 361.714 73.5095 387.799 73.5095H389.096Z" fill="#2A2A30"/>
<path d="M43.608 72.5723L54.5912 36.956L65.4982 72.5723H89.6003L108.516 15.5863H88.4562L77.3204 53.194L66.3372 15.5863H44.3707L33.3875 53.194L22.2517 15.5863H0.208984L19.6585 72.5723H43.608Z" fill="#2A2A30"/>
<path d="M140.537 30.9051C140.537 21.1776 136.495 14.8203 126.427 14.8203H123.986C113.994 14.8203 109.876 21.101 109.876 30.9051V57.9429C109.876 67.8235 114.833 73.4149 124.062 73.4149H126.503C135.122 73.4149 140.537 67.8235 140.537 57.9429V30.9051ZM127.495 58.7854C127.495 60.5471 126.884 61.6194 125.283 61.6194C123.528 61.6194 122.918 60.5471 122.918 58.7854V29.603C122.918 27.4584 123.452 26.386 125.206 26.386C126.732 26.386 127.495 27.4584 127.495 29.603V58.7854Z" fill="#2A2A30"/>
<path d="M159.44 15.5863L156.389 50.8962L153.795 15.5863H140.905L148.075 72.5723H162.643L165.084 42.3942L167.524 72.5723H181.787L189.033 15.5863H176.982L174.313 50.5898L171.262 15.5863H159.44Z" fill="#2A2A30"/>
<path d="M192.992 15.5863L200.696 51.9685H210.23L217.857 15.5863H192.992ZM215.874 56.1046H194.975V72.5723H215.874V56.1046Z" fill="#2A2A30"/>
<rect x="0.707031" y="1.44531" width="428.308" height="87.9713" stroke="black"/>
</svg>
