<svg width="528" height="173" viewBox="0 0 528 173" fill="none" xmlns="http://www.w3.org/2000/svg">
<path d="M275.742 115.667H301.065V84.1867L318.302 115.667H330.887L348.201 84.1867V115.667H373.752V58.6809H340.879L325.319 86.9441L310.141 58.6809H275.742V115.667Z" fill="#2A2A30"/>
<path d="M391.138 97.0545H388.85L389.994 75.3784L391.138 97.0545ZM392.13 115.667H401.511L396.401 58.6809H384.197L379.468 115.667H387.782L388.316 105.403H391.596L392.13 115.667Z" fill="#2A2A30"/>
<path d="M438.309 116.509C452.8 116.509 459.665 110.382 461.419 108.39C462.487 110.229 463.707 113.675 464.165 115.667H478.733V83.8038H440.444V94.4503H456.69C456.309 96.212 453.487 101.344 441.131 101.344C428.317 101.344 424.656 93.761 424.656 87.3271V86.5611C424.656 79.8209 428.012 73.004 441.131 73.004C453.868 73.004 455.851 77.5996 456.461 79.0549H478.046V78.7485C478.046 70.4764 472.021 57.7617 442.427 57.7617H439.758C410.545 57.7617 403.299 73.6167 403.299 86.1782V87.71C403.299 100.731 410.927 116.509 437.012 116.509H438.309Z" fill="#2A2A30"/>
<path d="M92.8209 115.572L103.804 79.956L114.711 115.572H138.813L157.729 58.5863H137.669L126.533 96.194L115.55 58.5863H93.5836L82.6004 96.194L71.4646 58.5863H49.4219L68.8713 115.572H92.8209Z" fill="#2A2A30"/>
<path d="M189.75 73.9051C189.75 64.1776 185.708 57.8203 175.64 57.8203H173.199C163.207 57.8203 159.089 64.101 159.089 73.9051V100.943C159.089 110.824 164.046 116.415 173.275 116.415H175.716C184.335 116.415 189.75 110.824 189.75 100.943V73.9051ZM176.707 101.785C176.707 103.547 176.097 104.619 174.496 104.619C172.741 104.619 172.131 103.547 172.131 101.785V72.603C172.131 70.4584 172.665 69.386 174.419 69.386C175.945 69.386 176.707 70.4584 176.707 72.603V101.785Z" fill="#2A2A30"/>
<path d="M208.652 58.5863L205.602 93.8962L203.008 58.5863H190.118L197.288 115.572H211.856L214.297 85.3942L216.737 115.572H231L238.246 58.5863H226.195L223.526 93.5898L220.475 58.5863H208.652Z" fill="#2A2A30"/>
<path d="M242.205 58.5863L249.909 94.9685H259.443L267.07 58.5863H242.205ZM265.087 99.1046H244.188V115.572H265.087V99.1046Z" fill="#2A2A30"/>
<path d="M67.958 0.757812L64.9071 36.0677L62.3139 0.757812H49.4238L56.5934 57.7439H71.1615L73.6022 27.5658L76.0429 57.7439H90.3058L97.5517 0.757812H85.5007L82.8311 35.7614L79.7802 0.757812H67.958Z" fill="#AFFF05"/>
<rect x="49.9238" y="58.2695" width="427.444" height="57.7383" stroke="black"/>
<rect x="0.6875" y="1.25781" width="525.917" height="170.896" stroke="black"/>
<path d="M18.7217 57.7695L15.6708 93.0795L13.0775 57.7695H0.1875L7.3571 114.756H21.9251L24.3659 84.5775L26.8066 114.756H41.0695L48.3154 57.7695H36.2644L33.5948 92.7731L30.5439 57.7695H18.7217Z" fill="#AFFF05"/>
<line x1="49.9238" y1="0.757813" x2="49.9238" y2="172.654" stroke="black"/>
<line x1="0.1875" y1="58.1328" x2="49.4241" y2="58.1328" stroke="black"/>
<line x1="0.1875" y1="116.004" x2="49.4241" y2="116.004" stroke="black"/>
</svg>
